HIERARCHY
ROOT Hips
{
	OFFSET 0.00000 0.00000 0.00000
	CHANNELS 6 Xposition Yposition Zposition Zrotation Yrotation Xrotation 
	JOINT LHipJoint
	{
		OFFSET 0 0 0
		CHANNELS 3 Zrotation Yrotation Xrotation
		JOINT LeftUpLeg
		{
			OFFSET 1.58161 -1.81893 0.78828
			CHANNELS 3 Zrotation Yrotation Xrotation
			JOINT LeftLeg
			{
				OFFSET 2.53374 -6.96141 0.00000
				CHANNELS 3 Zrotation Yrotation Xrotation
				JOINT LeftFoot
				{
					OFFSET 2.63509 -7.23986 0.00000
					CHANNELS 3 Zrotation Yrotation Xrotation
					JOINT LeftToeBase
					{
						OFFSET 0.14115 -0.38781 2.05350
						CHANNELS 3 Zrotation Yrotation Xrotation
						End Site
						{
							OFFSET 0.00000 -0.00000 1.05543
						}
					}
				}
			}
		}
	}
	JOINT RHipJoint
	{
		OFFSET 0 0 0
		CHANNELS 3 Zrotation Yrotation Xrotation
		JOINT RightUpLeg
		{
			OFFSET -1.11138 -1.81893 0.78828
			CHANNELS 3 Zrotation Yrotation Xrotation
			JOINT RightLeg
			{
				OFFSET -2.58392 -7.09926 0.00000
				CHANNELS 3 Zrotation Yrotation Xrotation
				JOINT RightFoot
				{
					OFFSET -2.66423 -7.31992 0.00000
					CHANNELS 3 Zrotation Yrotation Xrotation
					JOINT RightToeBase
					{
						OFFSET -0.18831 -0.51739 2.12114
						CHANNELS 3 Zrotation Yrotation Xrotation
						End Site
						{
							OFFSET -0.00000 -0.00000 1.09845
						}
					}
				}
			}
		}
	}
	JOINT LowerBack
	{
		OFFSET 0 0 0
		CHANNELS 3 Zrotation Yrotation Xrotation
		JOINT Spine
		{
			OFFSET -0.01511 1.97958 -0.08829
			CHANNELS 3 Zrotation Yrotation Xrotation
			JOINT Spine1
			{
				OFFSET 0.08344 1.97334 -0.04330
				CHANNELS 3 Zrotation Yrotation Xrotation
				JOINT Neck
				{
					OFFSET 0 0 0
					CHANNELS 3 Zrotation Yrotation Xrotation
					JOINT Neck1
					{
						OFFSET 0.00559 1.76246 0.31246
						CHANNELS 3 Zrotation Yrotation Xrotation
						JOINT Head
						{
							OFFSET -0.07011 1.80354 -0.30524
							CHANNELS 3 Zrotation Yrotation Xrotation
							End Site
							{
								OFFSET -0.02385 1.83547 -0.13906
							}
						}
					}
				}
				JOINT LeftShoulder
				{
					OFFSET 0 0 0
					CHANNELS 3 Zrotation Yrotation Xrotation
					JOINT LeftArm
					{
						OFFSET 3.20667 1.30156 -0.60240
						CHANNELS 3 Zrotation Yrotation Xrotation
						JOINT LeftForeArm
						{
							OFFSET 4.95663 -0.00000 0.00000
							CHANNELS 3 Zrotation Yrotation Xrotation
							JOINT LeftHand
							{
								OFFSET 3.38177 -0.00000 0.00000
								CHANNELS 3 Zrotation Yrotation Xrotation
								JOINT LeftFingerBase
								{
									OFFSET 0 0 0
									CHANNELS 3 Zrotation Yrotation Xrotation
									JOINT LeftHandIndex1
									{
										OFFSET 0.66291 -0.00000 0.00000
										CHANNELS 3 Zrotation Yrotation Xrotation
										End Site
										{
											OFFSET 0.53445 -0.00000 0.00000
										}
									}
								}
								JOINT LThumb
								{
									OFFSET 0 0 0
									CHANNELS 3 Zrotation Yrotation Xrotation
									End Site
									{
										OFFSET 0.54261 -0.00000 0.54261
									}
								}
							}
						}
					}
				}
				JOINT RightShoulder
				{
					OFFSET 0 0 0
					CHANNELS 3 Zrotation Yrotation Xrotation
					JOINT RightArm
					{
						OFFSET -3.06877 1.34672 -0.60964
						CHANNELS 3 Zrotation Yrotation Xrotation
						JOINT RightForeArm
						{
							OFFSET -5.08365 -0.00000 0.00000
							CHANNELS 3 Zrotation Yrotation Xrotation
							JOINT RightHand
							{
								OFFSET -3.35984 -0.00000 0.00000
								CHANNELS 3 Zrotation Yrotation Xrotation
								JOINT RightFingerBase
								{
									OFFSET 0 0 0
									CHANNELS 3 Zrotation Yrotation Xrotation
									JOINT RightHandIndex1
									{
										OFFSET -0.82076 -0.00000 0.00000
										CHANNELS 3 Zrotation Yrotation Xrotation
										End Site
										{
											OFFSET -0.66172 -0.00000 0.00000
										}
									}
								}
								JOINT RThumb
								{
									OFFSET 0 0 0
									CHANNELS 3 Zrotation Yrotation Xrotation
									End Site
									{
										OFFSET -0.67182 -0.00000 0.67182
									}
								}
							}
						}
					}
				}
			}
		}
	}
}
MOTION
Frames: 15
Frame Time: .0083333
-7.272 17.7845 0.3161 0 0 0 0 0 0 -21 0 0 0 0 0 0 0 0 0 0 0 0 0 0 21 0 0 0 0 0 0 0 0 0 0 0 0 0 0 0 0 0 0 0 0 0 0 -16 0 0 21 0 0 11 0 0 0 -8 0 0 0 0 0 0 0 0 0 0 0 0 0 0 0 0 0 0 0 0 8 0 0 0 0 0 0 0 0 0 0 0 0 0 0 0 0 0
-7.2720 17.7845 0.3161 -77.0016 88.5700 -62.1908 0.0000 0.0000 0.0000 -8.5618 -4.7693 -28.1368 2.2443 9.3574 26.9200 0.2654 -7.5482 -9.8828 0.9986 -6.3593 -17.8305 0.0000 0.0000 0.0000 8.5379 7.8802 -28.4540 -2.7050 -10.2014 29.6314 -0.2837 -4.7014 -12.9033 -0.1469 2.4699 -6.8063 -3.2538 1.8311 2.6163 3.7804 2.4425 3.1428 5.7074 1.1566 1.4743 1.4351 -0.6936 -15.4474 -4.2165 1.6073 36.5237 -1.6393 0.7558 15.4678 0.0000 0.0000 0.0000 -103.4146 -21.4595 82.1416 14.4373 -23.3564 -2.9993 -0.0000 0.0000 -42.9373 36.3762 66.0517 33.9487 -7.1250 0.0000 -0.0000 171.2621 10.4809 7.0878 0.0000 0.0000 0.0000 103.0154 22.9127 36.7222 -10.9057 18.1435 -1.7464 0.0000 -0.0000 -35.8291 -16.3982 -5.1937 1.5260 7.1250 -0.0000 -0.0000 8.5504 -35.2865 2.0591
-7.2674 17.7838 0.3187 -77.6903 88.6659 -62.8533 0.0000 0.0000 0.0000 -8.6959 -4.7345 -28.2067 2.2329 9.3351 26.8494 0.2671 -7.4848 -9.8876 1.1568 -6.8286 -19.2087 0.0000 0.0000 0.0000 8.4402 7.8563 -28.5052 -2.7176 -10.2232 29.7027 -0.2861 -4.7051 -12.9438 -0.1419 2.4275 -6.6886 -3.3619 1.8024 2.5538 3.7937 2.4038 3.1637 5.7869 1.1331 1.5315 1.3661 -0.6916 -15.4047 -4.2166 1.6250 36.4535 -1.6225 0.7527 15.4239 0.0000 -0.0000 0.0000 -103.5214 -21.4031 81.7913 14.3642 -23.2530 -2.9704 -0.0000 0.0000 -42.4564 31.9396 65.0342 29.4731 -7.1250 0.0000 -0.0000 170.6091 8.6539 7.9819 0.0000 -0.0000 0.0000 103.0320 22.9948 36.6701 -10.8710 18.0902 -1.7356 0.0000 -0.0000 -35.7035 -16.4020 -5.1937 1.5263 7.1250 -0.0000 -0.0000 8.5472 -35.2867 2.0583
-7.2622 17.7832 0.3220 -78.8190 88.7065 -63.9910 0.0000 0.0000 0.0000 -8.7291 -4.7129 -28.1949 2.2336 9.3366 26.8542 0.2715 -7.5277 -9.9629 1.2280 -7.0282 -19.7988 0.0000 0.0000 0.0000 8.4025 7.8853 -28.4670 -2.7218 -10.2305 29.7266 -0.2869 -4.7747 -13.0136 -0.1396 2.4077 -6.6337 -3.4235 1.7917 2.5145 3.8130 2.3897 3.1944 5.8451 1.1229 1.5842 1.3667 -0.7161 -15.3721 -4.2757 1.6040 36.3958 -1.6503 0.7352 15.3876 -0.0000 -0.0000 0.0000 -103.4838 -21.4318 82.0891 14.4449 -23.3672 -3.0023 -0.0000 0.0000 -42.3829 31.7350 64.9857 29.2683 -7.1250 0.0000 -0.0000 170.5759 8.5700 8.0268 -0.0000 -0.0000 0.0000 103.0422 23.0658 36.3515 -10.8470 18.0533 -1.7282 0.0000 -0.0000 -35.7617 -15.9932 -5.0408 1.4426 7.1250 -0.0000 -0.0000 8.8633 -35.1100 2.1745
-7.2575 17.7821 0.3245 -81.0416 88.7133 -66.2443 0.0000 0.0000 0.0000 -8.7302 -4.6841 -28.1575 2.2296 9.3289 26.8296 0.2644 -7.5686 -9.8755 1.1523 -6.8156 -19.1702 0.0000 0.0000 0.0000 8.4219 7.8987 -28.4103 -2.7285 -10.2420 29.7641 -0.2872 -4.8521 -13.0824 -0.1426 2.4335 -6.7053 -3.4150 1.7962 2.5629 3.8191 2.3954 3.1939 5.8447 1.1268 1.5559 1.4284 -0.7422 -15.4067 -4.3557 1.5840 36.4566 -1.6999 0.7259 15.4258 -0.0000 -0.0000 0.0000 -103.3258 -21.4683 82.7952 14.6041 -23.5918 -3.0658 -0.0000 0.0000 -42.3714 31.9329 64.9489 29.4496 -7.1250 0.0000 -0.0000 170.6378 8.5760 7.9714 -0.0000 -0.0000 0.0000 103.0600 23.1122 35.6825 -10.8189 18.0101 -1.7195 0.0000 -0.0000 -35.7261 -15.3343 -5.0579 1.3849 7.1250 -0.0000 -0.0000 9.4069 -35.0966 2.3139
-7.2533 17.7821 0.3254 -83.1708 88.7424 -68.3888 0.0000 0.0000 0.0000 -8.7419 -4.7573 -28.1097 2.2279 9.3254 26.8187 0.2618 -7.5346 -9.8280 1.0923 -6.6417 -18.6582 0.0000 0.0000 0.0000 8.4282 7.8243 -28.4008 -2.7329 -10.2496 29.7887 -0.2886 -4.8524 -13.1048 -0.1523 2.5146 -6.9301 -3.4127 1.8084 2.6446 3.8218 2.4102 3.1662 5.8422 1.1369 1.4795 1.4621 -0.7526 -15.4569 -4.3977 1.5906 36.5713 -1.7248 0.7306 15.4952 -0.0000 0.0000 0.0000 -103.3259 -21.4081 82.9834 14.6574 -23.6667 -3.0871 -0.0000 0.0000 -42.1902 32.3301 64.8430 29.8073 -7.1250 0.0000 -0.0000 170.7730 8.5607 7.8560 -0.0000 0.0000 0.0000 103.0835 23.1354 35.0957 -10.7913 17.9677 -1.7110 0.0000 -0.0000 -35.3742 -15.0156 -5.2146 1.3966 7.1250 -0.0000 -0.0000 9.6906 -35.2412 2.3507
-7.2493 17.7829 0.3266 -82.6085 88.7772 -67.8010 0.0000 0.0000 0.0000 -8.7701 -4.7999 -28.0970 2.2256 9.3210 26.8046 0.2645 -7.5241 -9.8634 1.0899 -6.6347 -18.6375 0.0000 0.0000 0.0000 8.3787 7.8504 -28.4260 -2.7372 -10.2570 29.8131 -0.2899 -4.8577 -13.1296 -0.1569 2.5520 -7.0339 -3.4388 1.8179 2.6350 3.8185 2.4226 3.1633 5.8537 1.1426 1.4794 1.4304 -0.7600 -15.5050 -4.3761 1.5911 36.6435 -1.7113 0.7305 15.5421 0.0000 0.0000 0.0000 -103.4127 -21.3868 82.7969 14.6126 -23.6037 -3.0692 -0.0000 0.0000 -41.9586 32.4266 64.7886 29.8884 -7.1250 0.0000 -0.0000 170.8168 8.5314 7.8231 0.0000 0.0000 0.0000 103.1266 23.1551 34.9218 -10.8054 17.9894 -1.7153 0.0000 -0.0000 -35.1645 -15.0894 -5.3759 1.4470 7.1250 -0.0000 -0.0000 9.6531 -35.4094 2.3014
-7.2453 17.7830 0.3277 -81.4491 88.7674 -66.6162 0.0000 0.0000 0.0000 -8.7738 -4.7426 -28.1092 2.2215 9.3131 26.7796 0.2612 -7.5668 -9.8298 1.0770 -6.5967 -18.5258 0.0000 0.0000 0.0000 8.3587 7.9444 -28.4303 -2.7421 -10.2654 29.8406 -0.2913 -4.8948 -13.1815 -0.1536 2.5255 -6.9604 -3.4191 1.8140 2.6012 3.8032 2.4182 3.1771 5.8280 1.1396 1.5146 1.4833 -0.7582 -15.5401 -4.3960 1.5834 36.6602 -1.7313 0.7311 15.5587 0.0000 0.0000 0.0000 -103.3894 -21.4264 82.6894 14.5847 -23.5644 -3.0580 -0.0000 0.0000 -41.8170 32.1362 64.7206 29.5976 -7.1250 0.0000 -0.0000 170.7696 8.4117 7.8866 0.0000 0.0000 0.0000 103.1885 23.1702 34.9921 -10.8231 18.0166 -1.7208 0.0000 -0.0000 -35.2114 -15.0752 -5.4660 1.4697 7.1250 -0.0000 -0.0000 9.6779 -35.5005 2.2857
-7.2408 17.7836 0.3303 -80.6079 88.7412 -65.7672 0.0000 0.0000 0.0000 -8.7647 -4.6263 -28.1258 2.2183 9.3068 26.7597 0.2540 -7.6334 -9.7482 1.0567 -6.5360 -18.3479 0.0000 0.0000 0.0000 8.3908 7.9861 -28.4226 -2.7460 -10.2721 29.8624 -0.2894 -4.9546 -13.2034 -0.1659 2.6241 -7.2338 -3.4067 1.8240 2.5803 3.7936 2.4319 3.1834 5.8114 1.1461 1.5319 1.5594 -0.7662 -15.5153 -4.4151 1.5510 36.6417 -1.7583 0.7253 15.5423 -0.0000 -0.0000 0.0000 -103.2875 -21.4588 82.7907 14.6144 -23.6062 -3.0699 -0.0000 0.0000 -41.8996 31.8661 64.7161 29.3392 -7.1250 0.0000 -0.0000 170.7040 8.3536 7.9551 -0.0000 -0.0000 0.0000 103.1810 23.1578 35.2109 -10.8448 18.0500 -1.7275 0.0000 -0.0000 -35.4593 -14.9990 -5.5194 1.4762 7.1250 -0.0000 -0.0000 9.7485 -35.5511 2.2906
-7.2357 17.7850 0.3342 -78.4601 88.7927 -63.5927 0.0000 0.0000 0.0000 -8.8366 -4.5249 -28.1771 2.2199 9.3099 26.7696 0.2489 -7.7471 -9.7130 1.0147 -6.4088 -17.9754 0.0000 0.0000 0.0000 8.3367 7.9854 -28.4494 -2.7481 -10.2756 29.8740 -0.2892 -4.9387 -13.1870 -0.1721 2.6726 -7.3685 -3.5064 1.8409 2.5163 3.7840 2.4537 3.1822 5.8601 1.1541 1.5605 1.5350 -0.7653 -15.4368 -4.3707 1.5442 36.6165 -1.7349 0.7266 15.5101 -0.0000 0.0000 0.0000 -103.3103 -21.4161 82.7356 14.6110 -23.6014 -3.0685 -0.0000 0.0000 -41.8414 31.5909 64.7116 29.0763 -7.1250 0.0000 -0.0000 170.6370 8.2949 8.0251 -0.0000 0.0000 0.0000 103.0892 23.1371 35.5347 -10.8851 18.1119 -1.7400 0.0000 -0.0000 -35.8456 -15.0979 -5.6069 1.5099 7.1250 -0.0000 -0.0000 9.6797 -35.6453 2.2515
-7.2314 17.7864 0.3336 -78.1721 88.8500 -63.2561 0.0000 0.0000 0.0000 -8.8846 -4.5838 -28.2265 2.2258 9.3213 26.8057 0.2485 -7.7818 -9.7184 0.9565 -6.2277 -17.4466 0.0000 0.0000 0.0000 8.2765 7.9001 -28.5244 -2.7495 -10.2780 29.8818 -0.2928 -4.8108 -13.1359 -0.1581 2.5617 -7.0608 -3.5658 1.8366 2.4614 3.7886 2.4477 3.1519 5.9002 1.1501 1.5584 1.5059 -0.7318 -15.3353 -4.3797 1.6157 36.6154 -1.7200 0.7546 15.4888 -0.0000 0.0000 0.0000 -103.4933 -21.2832 82.3691 14.5290 -23.4859 -3.0357 -0.0000 0.0000 -41.5072 31.2532 64.6516 28.7431 -7.1250 0.0000 -0.0000 170.5736 8.1744 8.1037 -0.0000 0.0000 0.0000 102.9756 23.0867 35.8545 -10.9249 18.1730 -1.7524 0.0000 -0.0000 -36.2394 -15.3339 -5.6689 1.5515 7.1250 -0.0000 -0.0000 9.4940 -35.7207 2.1897
-7.2283 17.7861 0.3324 -80.9645 88.7615 -66.0180 0.0000 0.0000 0.0000 -8.7783 -4.5836 -28.2919 2.2327 9.3348 26.8482 0.2506 -7.7759 -9.7474 0.9896 -6.3316 -17.7497 0.0000 0.0000 0.0000 8.3929 7.8663 -28.5588 -2.7502 -10.2793 29.8858 -0.2928 -4.7716 -13.1039 -0.1462 2.4640 -6.7899 -3.4301 1.8560 2.4673 3.8226 2.4754 3.1095 5.8565 1.1687 1.5111 1.4651 -0.7441 -15.2632 -4.3838 1.6200 36.6230 -1.7129 0.7532 15.4755 0.0000 -0.0000 0.0000 -103.6052 -21.1833 82.2414 14.4819 -23.4195 -3.0170 -0.0000 0.0000 -41.4514 31.1108 64.6190 28.6011 -7.1250 0.0000 -0.0000 170.5496 8.1170 8.1358 0.0000 -0.0000 0.0000 102.9077 23.0265 35.9434 -10.9623 18.2305 -1.7641 0.0000 -0.0000 -36.5053 -15.5305 -5.7044 1.5822 7.1250 -0.0000 -0.0000 9.3368 -35.7672 2.1419
-7.2256 17.7845 0.3347 -82.8854 88.6362 -67.9329 0.0000 0.0000 0.0000 -8.6588 -4.4455 -28.3702 2.2391 9.3474 26.8880 0.2505 -7.8178 -9.7600 1.0815 -6.6099 -18.5647 0.0000 0.0000 0.0000 8.5568 7.8929 -28.5443 -2.7489 -10.2771 29.8787 -0.2902 -4.8199 -13.1032 -0.1535 2.5245 -6.9574 -3.2799 1.8971 2.4766 3.8518 2.5329 3.1042 5.7996 1.2011 1.4977 1.4321 -0.7928 -15.2770 -4.3437 1.5474 36.6545 -1.7029 0.7248 15.4902 0.0000 -0.0000 0.0000 -103.5615 -21.2257 82.4513 14.5174 -23.4695 -3.0311 -0.0000 0.0000 -41.7883 31.2891 64.6997 28.7868 -7.1250 0.0000 -0.0000 170.5660 8.2249 8.1009 0.0000 -0.0000 0.0000 102.9081 23.0488 35.8057 -10.9853 18.2657 -1.7713 0.0000 -0.0000 -36.5155 -15.5863 -5.7791 1.6089 7.1250 -0.0000 -0.0000 9.3014 -35.8465 2.1154
-7.2222 17.7851 0.3377 -81.8851 88.6180 -66.9324 0.0000 0.0000 0.0000 -8.6259 -4.4549 -28.3506 2.2441 9.3570 26.9185 0.2512 -7.7810 -9.7572 1.0743 -6.5887 -18.5024 0.0000 0.0000 0.0000 8.5837 7.9088 -28.5263 -2.7467 -10.2732 29.8661 -0.2909 -4.8039 -13.1000 -0.1596 2.5740 -7.0949 -3.2888 1.9258 2.4473 3.8476 2.5716 3.1275 5.8012 1.2191 1.5332 1.4820 -0.8088 -15.3495 -4.3460 1.5168 36.7372 -1.7201 0.7194 15.5471 -0.0000 0.0000 0.0000 -103.4510 -21.3498 82.7413 14.5943 -23.5779 -3.0618 -0.0000 0.0000 -42.1844 31.7679 64.9299 29.2886 -7.1250 0.0000 -0.0000 170.6038 8.5264 8.0106 -0.0000 0.0000 0.0000 102.9518 23.1355 35.6097 -10.9514 18.2137 -1.7607 0.0000 -0.0000 -36.2190 -15.4503 -5.8413 1.6113 7.1250 -0.0000 -0.0000 9.4230 -35.9030 2.1305
-7.2183 17.7878 0.3408 -79.0669 88.6261 -64.1297 0.0000 0.0000 0.0000 -8.6195 -4.5146 -28.2757 2.2467 9.3620 26.9345 0.2550 -7.7131 -9.7885 1.0474 -6.5081 -18.2661 0.0000 0.0000 0.0000 8.5457 8.0031 -28.4667 -2.7445 -10.2696 29.8541 -0.2928 -4.7926 -13.1207 -0.1426 2.4335 -6.7054 -3.4195 1.9440 2.4046 3.8783 2.5956 3.1660 5.9105 1.2264 1.5878 1.5070 -0.7975 -15.3648 -4.3832 1.5418 36.7523 -1.7365 0.7284 15.5599 0.0000 -0.0000 0.0000 -103.4583 -21.4151 82.7976 14.6306 -23.6290 -3.0763 -0.0000 0.0000 -42.2806 32.0720 64.9924 29.5911 -7.1250 0.0000 -0.0000 170.6559 8.6428 7.9430 0.0000 -0.0000 0.0000 102.9573 23.2202 35.3508 -10.8766 18.0988 -1.7374 0.0000 -0.0000 -35.7562 -15.1102 -5.7995 1.5629 7.1250 -0.0000 -0.0000 9.6980 -35.8424 2.2087
